<svg xmlns="http://www.w3.org/2000/svg" viewBox="0 0 440 360"><defs><linearGradient id="g" x1="0" x2="1"><stop stop-color="#FFF0F4"/><stop offset="1" stop-color="#fff"/></linearGradient></defs><rect width="440" height="360" rx="36" fill="url(#g)"/><path d="M105 250c0-45 230-45 230 0v70H105Z" fill="#fff" stroke="#E85B88" stroke-width="7"/><path d="M105 250c35 25 75-25 115 0s80-25 115 0" fill="none" stroke="#E85B88" stroke-width="9"/><path d="M150 245v-65M220 245v-80M290 245v-65" stroke="#E85B88" stroke-width="7"/><path d="M142 170c15-28 18-28 28 0M212 165c15-28 18-28 28 0M282 170c15-28 18-28 28 0" stroke="#F2A93B" stroke-width="6" fill="none"/><text x="220" y="342" text-anchor="middle" font-family="Arial" font-size="17" font-weight="600" fill="#2B2130">Birthday</text></svg>